<svg width="126" height="24" viewBox="0 0 126 24" fill="none" xmlns="http://www.w3.org/2000/svg"><path d="M11.5882 16.2887L11.8365 16.4128V17.0336H7.80135L4.49043 12.3777V15.4506C4.49043 16.0093 4.75944 16.1645 4.98707 16.2369L5.46301 16.3714V17.0336H0V16.3818L0.486291 16.2162C0.848422 16.1024 1.01397 15.8645 1.01397 15.4506V4.39007C1.01397 4.18314 0.972581 4.01759 0.910502 3.93482C0.858769 3.87274 0.734609 3.76927 0.455251 3.6865L0 3.58303V2.96223L4.1076 2L4.56286 2.34144L4.50078 5.373V11.0429L7.91516 7.88722C8.04966 7.76306 8.13244 7.62856 8.15313 7.5044C8.15313 7.49405 8.12209 7.44232 7.96689 7.40093L7.42887 7.24573V6.58355H11.0295V7.24573L10.2121 7.46301C9.94309 7.54578 9.72581 7.64925 9.56027 7.76306C9.38438 7.88722 9.1671 8.06311 8.90843 8.29074L6.75634 10.3083L10.3259 15.2747C10.5329 15.5644 10.7294 15.7817 10.9053 15.9369C11.0709 16.0817 11.2985 16.2059 11.5675 16.299L11.5882 16.2887ZM21.8003 11.85H15.7062C15.7475 13.1433 15.9959 14.0848 16.4408 14.6539C16.9064 15.254 17.5996 15.5334 18.5411 15.5334C19.1826 15.5334 19.7103 15.4299 20.1035 15.2333C20.4966 15.0264 20.8795 14.7263 21.2312 14.3228L21.4071 14.1262L21.9659 14.6229L21.8624 14.7988C21.4175 15.5954 20.807 16.2266 20.0621 16.6715C19.3171 17.1164 18.4066 17.3544 17.372 17.3544C16.3373 17.3544 15.4371 17.1267 14.6405 16.6922C13.8438 16.2473 13.2126 15.6058 12.7574 14.7781C12.3125 13.9607 12.0848 12.9674 12.0848 11.8396C12.0848 10.7118 12.3539 9.64615 12.8712 8.81842C13.3885 7.99069 14.0714 7.3492 14.8784 6.91464C15.6958 6.48008 16.5546 6.2628 17.4547 6.2628C18.3549 6.2628 19.2137 6.45939 19.8758 6.84221C20.5484 7.23539 21.076 7.76306 21.4382 8.43559C21.8003 9.09778 21.9762 9.86342 21.9762 10.7015C21.9762 10.8567 21.9762 11.0222 21.9555 11.1878C21.9348 11.374 21.9038 11.5292 21.8624 11.6741L21.8003 11.85ZM15.7062 10.9188H18.7481C18.8515 9.58407 18.7998 8.61149 18.5825 8.02173C18.3756 7.46301 17.9928 7.194 17.3927 7.194C17.0512 7.194 16.7719 7.28712 16.5339 7.49405C16.2959 7.70098 16.0993 8.08381 15.9545 8.64252C15.8096 9.1909 15.7269 9.9462 15.7062 10.9188ZM30.357 7.24573L30.9881 7.40093C31.195 7.45266 31.2985 7.52509 31.3088 7.62856C31.3295 7.80445 31.2882 8.03207 31.195 8.30109L29.3844 13.2985L27.4806 8.36317C27.3771 8.07346 27.3357 7.84584 27.3357 7.6596C27.3357 7.62856 27.3357 7.52509 27.6358 7.42162L28.2152 7.194V6.5732H22.5453V7.21469L23.0729 7.42162C23.2799 7.51474 23.4247 7.61821 23.5075 7.73202C23.6006 7.87688 23.7041 8.06311 23.7869 8.31143L27.76 17.82C27.5737 18.327 27.3978 18.7512 27.253 19.0616C27.0978 19.3927 26.9633 19.6617 26.8495 19.8376C26.7356 19.9928 26.6425 20.0548 26.6011 20.0548C26.6011 20.0548 26.4666 20.0031 26.3528 19.8376L26.2287 19.7031C26.0321 19.3927 25.7941 19.1547 25.5251 18.9891C24.9664 18.6477 24.0559 18.6063 23.4247 19.1443C23.0936 19.4237 22.9177 19.8065 22.9177 20.2721C22.9177 20.7791 23.1143 21.2033 23.4972 21.5241C23.8696 21.8345 24.3663 22 24.9767 22C25.9183 22 26.6839 21.6068 27.2737 20.8205C27.822 20.0859 28.3808 18.9684 28.9188 17.5096L32.2504 8.42525C32.3539 8.13554 32.4573 7.89757 32.5711 7.74237C32.6643 7.60786 32.8401 7.5044 33.0988 7.43197L33.73 7.22504V6.5732H30.3363V7.24573H30.357ZM44.6767 11.7775C44.6767 12.9053 44.4594 13.8986 44.0145 14.7263C43.5696 15.5644 42.9384 16.2162 42.1314 16.6715C41.3347 17.1267 40.3725 17.3544 39.2861 17.3544C38.1997 17.3544 37.2375 17.1267 36.4304 16.6715C35.613 16.2162 34.9819 15.5541 34.537 14.716C34.1024 13.8779 33.8748 12.895 33.8748 11.7775C33.8748 10.6601 34.1128 9.67719 34.5784 8.8598C35.044 8.03207 35.7062 7.39058 36.5235 6.93533C37.3409 6.49043 38.2721 6.2628 39.2861 6.2628C40.3001 6.2628 41.2312 6.49043 42.0383 6.92499C42.8453 7.36989 43.4972 8.01138 43.9731 8.83911C44.4387 9.66684 44.6767 10.6498 44.6767 11.7775ZM37.7341 14.747C37.8583 15.3885 38.0445 15.8334 38.2928 16.0714C38.5411 16.299 38.8619 16.4128 39.2861 16.4128C39.7103 16.4128 40.0207 16.299 40.269 16.0714C40.5173 15.8334 40.7036 15.3885 40.8277 14.747C40.9519 14.0641 41.0243 13.0709 41.0243 11.8189C41.0243 10.567 40.9622 9.55303 40.8277 8.87015C40.7036 8.22866 40.5173 7.77341 40.269 7.53544C40.031 7.30781 39.7103 7.194 39.2861 7.194C38.8619 7.194 38.5411 7.30781 38.2928 7.53544C38.0341 7.77341 37.8479 8.21831 37.7341 8.8598C37.6099 9.54268 37.5375 10.536 37.5375 11.8086C37.5375 13.0812 37.5996 14.0538 37.7341 14.7367V14.747Z" fill="#FF8844"></path><path d="M52.1437 15.4331C52.1437 15.6503 52.1024 15.8571 52.0196 16.0536C51.9369 16.2501 51.8232 16.4155 51.6784 16.55C51.5336 16.6844 51.3681 16.7982 51.1717 16.8809C50.9752 16.9636 50.7787 17.005 50.5719 17.005C50.3547 17.005 50.1479 16.9636 49.9617 16.8809C49.7756 16.7982 49.6101 16.6844 49.4654 16.55C49.3206 16.4155 49.2068 16.2501 49.1241 16.0536C49.0414 15.8571 49 15.6503 49 15.4331C49 15.216 49.0414 15.0091 49.1241 14.8126C49.2068 14.6162 49.3206 14.4507 49.4654 14.3163C49.6101 14.1818 49.7756 14.0681 49.9617 13.9853C50.1479 13.9026 50.3547 13.8612 50.5719 13.8612C50.789 13.8612 50.9855 13.9026 51.1717 13.9853C51.3681 14.0681 51.5336 14.1818 51.6784 14.3163C51.8232 14.4507 51.9369 14.6162 52.0196 14.8126C52.1024 15.0091 52.1437 15.216 52.1437 15.4331ZM61.4333 15.5882C61.2161 16.1053 60.9059 16.4776 60.5026 16.6844C60.1096 16.9016 59.6443 17.005 59.1169 17.005C58.6205 17.005 58.1551 16.9119 57.7208 16.7258C57.2865 16.5396 56.9038 16.2604 56.5729 15.8985C56.242 15.5365 55.9835 15.0919 55.787 14.5748C55.5905 14.0577 55.4974 13.4683 55.4974 12.8064V12.5376C55.4974 11.8861 55.5905 11.307 55.7766 10.7796C55.9628 10.2625 56.2213 9.81781 56.5419 9.45587C56.8625 9.09393 57.2347 8.81471 57.6587 8.61823C58.0827 8.42174 58.5377 8.32867 59.0238 8.32867C59.6132 8.32867 60.0786 8.43208 60.4405 8.62857C60.8025 8.82505 61.0817 9.13529 61.2885 9.55928H61.5884V8.56652H63.6774V14.2956C63.6774 14.6265 63.8221 14.792 64.122 14.792H64.4323V16.7775H63.0052C62.6329 16.7775 62.3226 16.6637 62.0848 16.4466C61.8469 16.2294 61.7332 15.9398 61.7332 15.5882H61.4333ZM59.5822 15.0195C60.1923 15.0195 60.6784 14.823 61.0403 14.4197C61.4023 14.0164 61.5884 13.4683 61.5884 12.7754V12.5789C61.5884 11.8861 61.4023 11.338 61.0403 10.9347C60.6784 10.5314 60.1923 10.3349 59.5822 10.3349C58.9721 10.3349 58.486 10.5314 58.1241 10.9347C57.7622 11.338 57.576 11.8861 57.576 12.5789V12.7754C57.576 13.4683 57.7622 14.0164 58.1241 14.4197C58.486 14.823 58.9721 15.0195 59.5822 15.0195ZM66.0455 8.56652H69.5202V9.75577H69.8201C69.9752 9.30075 70.2337 8.94915 70.606 8.70096C70.9783 8.45277 71.423 8.32867 71.94 8.32867C72.757 8.32867 73.4085 8.5872 73.9049 9.09393C74.4012 9.60065 74.6494 10.3866 74.6494 11.4311V11.793L72.4985 11.9895V11.762C72.4985 11.307 72.3847 10.945 72.1468 10.6761C71.909 10.4073 71.5677 10.2728 71.1024 10.2728C70.637 10.2728 70.2751 10.4279 70.0062 10.7485C69.7373 11.0691 69.6132 11.5241 69.6132 12.1239V14.7713H71.4953V16.7568H65.8387V14.7713H67.5243V10.5314H66.0352V8.54584L66.0455 8.56652ZM84.7735 13.7682C84.5874 14.7403 84.1427 15.5262 83.4395 16.1156C82.7363 16.7154 81.8056 17.005 80.637 17.005C80.0269 17.005 79.4685 16.9119 78.9411 16.7258C78.4136 16.5396 77.9586 16.2708 77.576 15.9192C77.1934 15.5676 76.8831 15.1332 76.666 14.6162C76.4488 14.0991 76.3351 13.5096 76.3351 12.8478V12.6513C76.3351 11.9895 76.4488 11.3897 76.666 10.8623C76.8831 10.3349 77.1934 9.87986 77.5863 9.50758C77.9793 9.13529 78.4343 8.84574 78.9617 8.64925C79.4891 8.45277 80.0476 8.34935 80.637 8.34935C81.7849 8.34935 82.7156 8.64925 83.4292 9.2387C84.1427 9.8385 84.5874 10.6141 84.7735 11.5862L82.726 12.1136C82.6639 11.6275 82.4467 11.2139 82.0951 10.8519C81.7435 10.49 81.2472 10.3245 80.606 10.3245C80.3061 10.3245 80.0269 10.3762 79.758 10.49C79.4891 10.6037 79.2616 10.7589 79.0652 10.9657C78.8687 11.1725 78.7135 11.4207 78.5895 11.7103C78.4757 11.9998 78.4136 12.3307 78.4136 12.6927V12.7961C78.4136 13.158 78.4757 13.4786 78.5895 13.7682C78.7032 14.0474 78.8583 14.2852 79.0652 14.4714C79.2616 14.6575 79.4995 14.8023 79.758 14.8954C80.0269 14.9884 80.3061 15.0402 80.606 15.0402C81.2472 15.0402 81.7332 14.885 82.0745 14.5645C82.4157 14.2439 82.6329 13.8095 82.726 13.2718L84.7735 13.7889V13.7682ZM89.2099 16.7775H87.121V5.19527H89.2099V9.8902H89.5098C89.7166 9.39382 90.0269 9.0112 90.4405 8.74232C90.8438 8.47345 91.3506 8.33901 91.9504 8.33901C92.3537 8.33901 92.7363 8.40106 93.0776 8.5355C93.4188 8.66993 93.7187 8.86642 93.9669 9.13529C94.2254 9.40416 94.4219 9.73508 94.5667 10.1487C94.7115 10.5624 94.7839 11.0484 94.7839 11.6172V16.7775H92.6949V12.1136C92.6949 11.5345 92.5502 11.0691 92.2709 10.7278C91.9917 10.3866 91.5884 10.2211 91.0507 10.2211C90.4302 10.2211 89.9752 10.4279 89.6649 10.8416C89.365 11.2552 89.2099 11.8137 89.2099 12.5065V16.7775ZM97.5657 14.792H100.347V10.552H97.7622V8.56652H102.426V14.792H104.805V16.7775H97.5553V14.792H97.5657ZM102.943 6.13632C102.943 6.35349 102.902 6.56032 102.819 6.7568C102.736 6.95328 102.623 7.11874 102.478 7.25318C102.333 7.38762 102.168 7.50137 101.971 7.5841C101.775 7.66683 101.578 7.7082 101.371 7.7082C101.154 7.7082 100.947 7.66683 100.761 7.5841C100.575 7.50137 100.41 7.38762 100.265 7.25318C100.12 7.11874 100.006 6.95328 99.9235 6.7568C99.8407 6.56032 99.7994 6.35349 99.7994 6.13632C99.7994 5.91916 99.8407 5.71233 99.9235 5.51585C100.006 5.31937 100.12 5.15391 100.265 5.01947C100.41 4.88503 100.575 4.77128 100.761 4.68855C100.947 4.60582 101.154 4.56445 101.371 4.56445C101.588 4.56445 101.785 4.60582 101.971 4.68855C102.157 4.77128 102.333 4.88503 102.478 5.01947C102.623 5.15391 102.736 5.31937 102.819 5.51585C102.902 5.71233 102.943 5.91916 102.943 6.13632ZM107.162 8.56652H109.417L111.351 15.7847H111.65L113.584 8.56652H115.839L113.491 16.7775H109.52L107.173 8.56652H107.162ZM119.903 13.3545C119.913 13.5924 119.975 13.8199 120.079 14.0267C120.182 14.2335 120.327 14.4093 120.513 14.5541C120.699 14.6989 120.906 14.823 121.144 14.9057C121.382 14.9884 121.63 15.0298 121.899 15.0298C122.416 15.0298 122.819 14.9367 123.088 14.7609C123.367 14.5748 123.564 14.3576 123.688 14.1094L125.477 15.1022C125.373 15.309 125.239 15.5262 125.063 15.7537C124.887 15.9812 124.66 16.188 124.381 16.3742C124.101 16.5603 123.76 16.7154 123.357 16.8395C122.953 16.9636 122.478 17.0257 121.94 17.0257C121.32 17.0257 120.761 16.9223 120.254 16.7258C119.748 16.5293 119.303 16.2397 118.941 15.8675C118.569 15.4952 118.29 15.0298 118.083 14.4921C117.876 13.9543 117.772 13.3442 117.772 12.6513V12.5479C117.772 11.9171 117.876 11.3483 118.093 10.8313C118.31 10.3142 118.6 9.86952 118.982 9.50758C119.365 9.14563 119.799 8.85608 120.296 8.65959C120.792 8.46311 121.34 8.34935 121.909 8.34935C122.612 8.34935 123.222 8.47345 123.729 8.72164C124.236 8.96983 124.66 9.28007 124.991 9.66269C125.322 10.0453 125.559 10.459 125.715 10.9243C125.87 11.3897 125.942 11.824 125.942 12.2584V13.3649H119.923L119.903 13.3545ZM121.878 10.2211C121.351 10.2211 120.916 10.3556 120.585 10.6244C120.254 10.8933 120.037 11.2035 119.944 11.5551H123.812C123.75 11.1725 123.543 10.8519 123.191 10.5934C122.84 10.3349 122.405 10.2108 121.878 10.2108V10.2211Z" fill="#666666"></path></svg>
